<svg xmlns="http://www.w3.org/2000/svg" height="48" viewBox="0 -960 960 960" width="48"><path d="m661-114 111-110v90h43v-163H652v43h89L631-144l30 30Zm-484 10q-30.75 0-51.875-21.125T104-177v-605q0-29.75 21.125-51.375T177-855h606q30.75 0 51.875 21.625T856-782v337q-17-10-35.5-16.5T783-472v-310H177v605h297q3.188 19.806 8.616 38.576Q488.045-119.655 496-104H177Zm0-110v37-605 310-5 263Zm95-54h205q4-20 10.5-38t17.5-35H272v73Zm0-175h338q17-11 36-18.5t42-10.5v-44H272v73Zm0-174h416v-73H272v73ZM732.634-14Q649.38-14 590.19-73.19 531-132.38 531-215q0-83.055 59.046-143.027Q649.091-418 732.866-418q82.754 0 142.444 59.973Q935-298.055 935-215q0 82.62-59.556 141.81Q815.889-14 732.634-14Z"/></svg>